<svg xmlns="http://www.w3.org/2000/svg" xmlns:xlink="http://www.w3.org/1999/xlink" version="1.1" width="1080" height="580" viewBox="0 0 1080 580" xml:space="preserve">
  <defs>
    <linearGradient id="grad" x1="0%" y1="0%" x2="100%" y2="0%">
      <stop offset="0%" style="stop-color: #800000; stop-opacity: 1" />
      <stop offset="100%" style="stop-color: #b61a38; stop-opacity: 1" />
    </linearGradient>
    <filter id="inner-shadow">
      <feFlood flood-color="black"/>
      <feComposite operator="out" in2="SourceGraphic" />
      <feMorphology operator="dilate" radius="1"/>
      <feGaussianBlur stdDeviation="1.5" />
      <feComposite operator="atop" in2="SourceGraphic"/>
    </filter>
  </defs>
  <g transform="matrix(2.7504714417 0 0 2.7504714417 764.4320182628 75.5135038542)" id="TPpNVTeKkeeubM_Ur9nHD">
    <path style="fill: url(#grad); filter: url(#inner-shadow); fill-opacity: 1;" d="M -114.05551 -27.45475 L 114.05551 -27.45475 L 114.05551 9.116649999999996 C 114.05551 9.116649999999996 110.39759 10.083939999999997 106.22507 12.555789999999996 C 102.05255 15.027639999999996 97.36543 19.004039999999996 97.36543 19.004039999999996 C 97.36543 19.004039999999996 91.01408 19.509109999999996 84.58003000000001 21.621789999999997 C 78.14597 23.734469999999998 71.62920000000001 27.454749999999997 71.62920000000001 27.454749999999997 C 71.62920000000001 27.454749999999997 61.48998000000001 20.316469999999995 50.254390000000015 19.00405 C 39.01879000000002 17.69163 26.686820000000015 22.20507 26.686820000000015 22.20507 C 26.686820000000015 22.20507 17.215880000000013 16.37435 7.4599200000000145 13.37497 C -2.2960399999999854 10.375589999999999 -12.337029999999984 10.207559999999999 -12.337029999999984 10.207559999999999 C -12.337029999999984 10.207559999999999 -14.518089999999985 5.734959999999999 -18.513849999999984 3.613319999999999 C -22.509609999999984 1.4916799999999988 -28.320059999999984 1.720999999999999 -28.320059999999984 1.720999999999999 C -28.320059999999984 1.720999999999999 -32.98420999999998 -9.712790000000002 -43.168089999999985 -12.577000000000002 C -53.35196999999999 -15.441210000000002 -69.05555999999999 -9.735860000000002 -69.05555999999999 -9.735860000000002 C -69.05555999999999 -9.735860000000002 -76.55112999999999 -17.336560000000002 -87.12396999999999 -21.014070000000004 C -97.69680999999999 -24.691580000000002 -111.34692999999999 -24.445900000000005 -111.34692999999999 -24.445900000000005 z" />
  </g>
  <g transform="matrix(2.7504714417 0 0 2.7504714417 702.1939058713 493.3222108827)" id="GV_cu_f2nSirs6WinXy8j">
    <path style="fill: url(#grad); filter: url(#inner-shadow); fill-opacity: 1;" d="M -136.82009 31.15479 L 136.82009 31.15479 L 136.82009 -31.15479 C 136.82009 -31.15479 133.38271 -28.77388 127.77547999999999 -27.157249999999998 C 122.16824999999999 -25.540619999999997 114.39115999999999 -24.68828 114.39115999999999 -24.68828 C 114.39115999999999 -24.68828 104.30269999999999 -11.172519999999999 89.98398999999998 -9.67137 C 83.97150999999998 -9.04103 76.13984999999998 -8.99391 70.41661999999998 -11.026959999999999 C 62.50998999999998 -13.835609999999999 56.42348999999998 -18.91461 56.42348999999998 -18.91461 C 56.42348999999998 -18.91461 53.21575999999998 -12.78915 47.09565999999998 -9.67137 C 40.97556999999998 -6.55359 31.94311999999998 -6.443479999999999 31.94311999999998 -6.443479999999999 C 31.94311999999998 -6.443479999999999 26.161079999999977 -0.08181999999999956 18.308889999999977 0.3223400000000005 C 10.456699999999977 0.7265000000000006 0.5343499999999786 -4.826849999999999 0.5343499999999786 -4.826849999999999 C 0.5343499999999786 -4.826849999999999 -1.2321200000000214 -3.4411699999999996 -3.6570600000000217 -2.9792699999999996 C -6.082000000000022 -2.5173799999999997 -9.165420000000022 -2.9792699999999996 -9.165420000000022 -2.9792699999999996 C -9.165420000000022 -2.9792699999999996 -16.298460000000023 5.02885 -25.869860000000024 6.760950000000001 C -35.44126000000003 8.49305 -47.451010000000025 3.949140000000001 -47.451010000000025 3.949140000000001 C -47.451010000000025 3.949140000000001 -51.53611000000002 9.087710000000001 -57.32268000000003 11.108490000000002 C -63.109250000000024 13.129280000000001 -70.59728000000003 12.032280000000002 -70.59728000000003 12.032280000000002 C -70.59728000000003 12.032280000000002 -81.39249000000002 21.598280000000003 -96.46177000000003 25.23569 C -111.53105000000002 28.8731 -130.87441000000004 26.581930000000003 -130.87441000000004 26.581930000000003 z" />
  </g>
</svg>
